<svg width="100" height="86" viewBox="0 0 100 86" fill="none" xmlns="http://www.w3.org/2000/svg">
<path d="M99.704 38.9315L81.9305 2.45879C81.4397 1.45137 80.4172 0.8125 79.2969 0.8125H20.7031C19.5826 0.8125 18.5603 1.45156 18.0695 2.45879L0.296004 38.9315C-0.119622 39.7846 -0.0963799 40.7862 0.358308 41.619C0.812997 42.4518 1.64308 43.013 2.58546 43.1243C5.08078 43.4194 7.52024 43.4632 9.96086 43.2725V82.258C9.96086 83.8759 11.2726 85.1877 12.8906 85.1877C16.7472 85.1877 84.5829 85.1877 87.1094 85.1877C88.7274 85.1877 90.0391 83.8759 90.0391 82.258V43.2737C92.4833 43.4645 94.9522 43.4153 97.4145 43.1241C98.3569 43.0128 99.187 42.4516 99.6417 41.6188C100.096 40.786 100.12 39.7845 99.704 38.9315ZM59.7092 6.67189L68.1704 30.6911C59.7557 39.8561 40.1521 39.7553 31.8297 30.6911L40.2908 6.67189H59.7092ZM7.50149 37.5206L22.5343 6.67189H34.0785L25.907 29.8688C21.7398 35.1489 14.2554 37.4219 7.50149 37.5206ZM35.3515 79.3283H15.8203V70.5392H35.3515V79.3283ZM58.7891 79.3283H41.2109V55.8907H58.7891V79.3283ZM84.1798 79.3283H64.6485V70.5392H84.1798V79.3283ZM84.1798 64.6798H64.6485V52.961C64.6485 51.3431 63.3367 50.0313 61.7188 50.0313H38.2812C36.6633 50.0313 35.3515 51.3431 35.3515 52.961V64.6798H15.8203V42.3399C20.4636 41.2018 25.0244 39.0327 28.5164 35.6858C39.2584 45.9741 60.7584 45.9579 71.4836 35.6858C74.9452 39.0034 79.4864 41.1895 84.1798 42.3399V64.6798ZM74.0928 29.8684L65.9213 6.67189H77.4655L92.4985 37.5208C85.7688 37.4216 78.2758 35.1686 74.0928 29.8684Z" fill="#020202"/>
</svg>
